<svg xmlns="http://www.w3.org/2000/svg" viewBox="0 0 124.75 160.82"><defs><style>.cls-1{fill:#c42a26;}</style></defs><g id="图层_2" data-name="图层 2"><g id="图层_1-2" data-name="图层 1"><path class="cls-1" d="M62.36,91.74c-15.93,0-31-2.5-42.4-7C7.09,79.57,0,72.19,0,63.89H10.12c0,3.71,5.21,8.08,13.57,11.38,10.26,4.09,24,6.33,38.65,6.33S90.76,79.38,101,75.29c8.39-3.34,13.57-7.71,13.57-11.42h10.12c0,8.28-7.07,15.7-20,20.82C93.34,89.24,78.3,91.74,62.36,91.74Zm0,35.39c-15.93,0-31-2.5-42.4-7C7.09,115,0,107.58,0,99.28H10.12c0,3.71,5.21,8.08,13.57,11.38C34,114.75,47.66,117,62.34,117s28.42-2.22,38.66-6.31c8.39-3.34,13.57-7.71,13.57-11.42h10.12c0,8.28-7.07,15.7-20,20.82C93.34,124.63,78.3,127.13,62.36,127.13Zm0,33.69c-15.93,0-31-2.5-42.4-7C7.09,148.65,0,141.27,0,133H10.12c0,3.71,5.21,8.09,13.57,11.39,10.26,4.08,24,6.32,38.65,6.32s28.42-2.22,38.66-6.3c8.39-3.34,13.57-7.72,13.57-11.43h10.12c0,8.28-7.07,15.7-20,20.82C93.34,158.34,78.3,160.82,62.36,160.82Zm0-105.14c-15.93,0-31-2.5-42.4-7C7.09,43.52,0,36.13,0,27.83S7.07,12.13,20,7C31.39,2.46,46.48,0,62.5,0c24.8,0,47,6.21,56.66,15.8,3.61,3.61,5.53,7.79,5.53,12,0,8.28-7.07,15.71-20,20.82C93.34,53.18,78.3,55.68,62.36,55.68Zm.18-45.56c-14.73,0-28.56,2.22-38.83,6.31-8.4,3.34-13.57,7.71-13.57,11.42s5.21,8.09,13.57,11.39c10.25,4.08,24,6.33,38.65,6.33S90.78,43.34,101,39.26c8.39-3.34,13.57-7.72,13.57-11.43,0-1.52-.88-3.16-2.56-4.84C105.61,16.54,87.85,10.12,62.54,10.12Z"/><path class="cls-1" d="M0,27.83H10.14V134.3H0Zm114.61.37h10.12V134.71H114.63Z"/><path class="cls-1" d="M30.37,63.22a5.1,5.1,0,1,1-5.1-5.09,5.08,5.08,0,0,1,5.1,5.09m0,35.06a5.1,5.1,0,1,1-5.1-5.1,5.09,5.09,0,0,1,5.1,5.1m0,33.87a5.1,5.1,0,1,1-5.1-5.1,5.09,5.09,0,0,1,5.1,5.1"/></g></g></svg>