<svg xmlns="http://www.w3.org/2000/svg" viewBox="0 0 183.33 183.33"><defs><style>.cls-1{fill:#c42a26;}</style></defs><g id="图层_2" data-name="图层 2"><g id="图层_1-2" data-name="图层 1"><path class="cls-1" d="M134.11,0C149.65,0,162,13.58,162.48,30.21l0,1v72.92h6.25A14.58,14.58,0,0,1,183.31,118l0,.8v50a14.58,14.58,0,0,1-14.58,14.58H14.58A14.58,14.58,0,0,1,0,168.75H0v-50a14.58,14.58,0,0,1,14.58-14.58h6.25V31.25C20.83,14.5,32.86.58,48.26,0l1,0ZM34,116.67H14.58a2.08,2.08,0,0,0-2.08,2.08h0v50a2.08,2.08,0,0,0,2.08,2.08H168.75a2.08,2.08,0,0,0,2.08-2.08h0v-50a2.08,2.08,0,0,0-2.08-2.08H153.43a2.1,2.1,0,0,0-1.35.49l-24.78,21a14.58,14.58,0,0,1-9.44,3.47H66.12a14.58,14.58,0,0,1-10.25-4.22l-20.4-20.18a2,2,0,0,0-1.46-.6ZM134.11,12.5H49.23c-8.34,0-15.46,7.75-15.88,17.8l0,.95v72.92H34a14.59,14.59,0,0,1,9.61,3.61l.65.6,20.38,20.18a2.08,2.08,0,0,0,1.47.61h51.73a2.09,2.09,0,0,0,1.35-.5l24.79-21a14.58,14.58,0,0,1,6-3.06V31.25c0-10.2-6.86-18.25-15.12-18.73ZM114.58,79.17a6.25,6.25,0,0,1,0,12.5H68.75a6.25,6.25,0,0,1,0-12.5Zm12.5-37.5a6.25,6.25,0,1,1,0,12.5H56.25a6.25,6.25,0,0,1,0-12.5Z"/></g></g></svg>