<svg xmlns="http://www.w3.org/2000/svg" viewBox="0 0 199.88 200"><defs><style>.cls-1{fill:#c42a26;}</style></defs><g id="图层_2" data-name="图层 2"><g id="图层_1-2" data-name="图层 1"><path class="cls-1" d="M85,69.49q.2-26.92,0-53.89C85,5.46,79.79.21,69.89.12Q42.65-.1,15.42.11C5.41.2.16,5.46.07,15.38q-.13,27.22,0,54.46c.1,10,5.33,15.06,15.41,15.22,9.11.14,18.34,0,27.51,0H69.38C79.66,84.91,85,79.74,85,69.49ZM71.4,62.85c0,6.22-2.46,8.55-8.78,8.59q-20.05.11-40.11,0c-6.58,0-8.81-2.39-8.88-9.11s0-13.35,0-20.06V22.22c0-6,2.39-8.53,8.2-8.57q20.63-.17,41.2,0c5.88,0,8.26,2.52,8.3,8.48Q71.56,42.55,71.4,62.85ZM127.24,44l1.11-1.15H179.2v75c0,7.3,2.13,10.47,6.89,10.38s6.64-3.16,6.65-10.63V38c0-7.29-1.82-9.12-9.11-9.12H129.85l-1.2-2.08c2.24-1.82,4.66-3.37,6.71-5.36,3.17-3.09,4.72-6.61,1.11-10.5-3.08-3.33-6.78-3.08-10.94,1q-9.12,8.79-17.83,17.83c-4.32,4.43-4.41,8.75-.2,13.07,6,6.16,12.16,12.16,18.23,18.23,3.19,3.15,6.84,4.83,10.37.84,3.25-3.65,2.21-7.48-1-10.68A90.09,90.09,0,0,0,127.24,44Zm-14.75,99.49q-12.58-.19-25.23,0c-9.73.14-15.38,5.47-15.75,15.13-.33,8.6-.31,17.23,0,25.81.35,9.94,6.07,15.21,16.1,15.37h24.67c10-.18,15.71-5.47,16-15.44.31-8.59.33-17.21,0-25.8-.38-9.68-6.07-14.93-15.83-15.07Zm2.06,35.14c-.42,4.74-3.1,7.68-8.29,7.5H100c-14.09,0-14.93-.8-14.91-14.75a51.24,51.24,0,0,1,.29-7.33c.6-4.3,3.06-6.87,7.62-6.91s9.11,0,13.71,0a7.3,7.3,0,0,1,7.8,6.75c0,.18,0,.36,0,.54a84.17,84.17,0,0,1,0,14.2Zm-58.3-21.51c-.42-8-5.47-13.23-13.47-13.49-9.73-.33-19.51-.33-29.17,0-8,.28-13.14,5.47-13.4,13.58-.27,9.54-.27,19.11,0,28.72.25,8.35,5.47,13.58,13.76,13.83,9.54.28,19.11.3,28.64,0,8.28-.27,13.31-5.47,13.73-13.91.22-4.57,0-9.11,0-13.74C56.31,167.08,56.45,162.1,56.25,157.14ZM42.71,177.89c-.15,5.83-2.54,8.11-8.46,8.29H21.12c-4.85-.18-7.29-2.86-7.42-7.6s0-9.11,0-13.69,2.57-7.47,7.3-7.67,9.51-.17,14.27,0,7.29,2.77,7.42,7.58c.09,4.34.15,8.71,0,13.09Zm157-20.55c-.23-8.05-5.32-13.4-13.27-13.67-9.92-.35-19.87-.35-29.79,0a13,13,0,0,0-13,13V157c-.31,9.74-.32,19.49,0,29.17.28,8,5.47,13,13.53,13.46,4.76.25,9.55,0,14.31,0s9.55.18,14.31,0c8.33-.4,13.62-5.47,13.88-13.75.32-9.42.31-19,0-28.55Zm-13.54,21.31c-.22,4.74-2.68,7.42-7.51,7.52s-9.52.12-14.26,0a6.73,6.73,0,0,1-7.29-7.21c-.18-4.74-.13-9.49,0-14.25s2.77-7.29,7.51-7.51c4-.13,8,0,12,0,7.29,0,9.46,2.17,9.55,9.53v5.71c0,2,.11,4.12,0,6.21Z"/></g></g></svg>