<svg xmlns="http://www.w3.org/2000/svg" viewBox="0 0 218.87 200"><defs><style>.cls-1{fill:#c42a26;}</style></defs><g id="图层_2" data-name="图层 2"><g id="图层_1-2" data-name="图层 1"><path class="cls-1" d="M211.21,80.23c4.84-2.87,7.66-7.32,7.66-12.23s-2.78-9.37-7.66-12.24l-89-52.52c-7.28-4.32-18.22-4.32-25.53,0l-89,52.54C2.78,58.63,0,63.08,0,68s2.78,9.36,7.66,12.23L31.47,94.31l.27,71.48A23.18,23.18,0,0,0,45.64,187a156.23,156.23,0,0,0,62.7,13,152.26,152.26,0,0,0,67-15.51,18.63,18.63,0,0,0,10.35-16.42L186.29,95ZM105.14,17.61a10.44,10.44,0,0,1,8.58,0L199.08,68l-85.36,50.34a10.36,10.36,0,0,1-8.58,0L45.59,83.23a8.34,8.34,0,0,0-3.28-2L19.77,68ZM169,167.9a1.73,1.73,0,0,1-.94,1.56,133.83,133.83,0,0,1-59.71,13.83,139.33,139.33,0,0,1-56-11.62,6.5,6.5,0,0,1-3.84-5.95l-.25-61.53,48.42,28.64a26.93,26.93,0,0,0,25.56,0l47.27-27.9Z"/><path class="cls-1" d="M210.24,88.6A8.35,8.35,0,0,0,201.89,97v72.42a8.36,8.36,0,0,0,16.71,0V97A8.35,8.35,0,0,0,210.24,88.6Z"/></g></g></svg>