<svg xmlns="http://www.w3.org/2000/svg" viewBox="0 0 149.95 129.99"><defs><style>.cls-1{fill:#c42a26;}</style></defs><g id="图层_2" data-name="图层 2"><g id="图层_1-2" data-name="图层 1"><path class="cls-1" d="M146.38,54.51l-.16-.13Zm3.53-16.87C148.56,12.74,127.63,3,115.07,1.05,90.33-2.85,75.58,15.57,75.58,15.57H75v0h-.58S59.67-3.38,34.91.53C22.34,2.51,1.4,12.22,0,37.1c-.37,6.77,1.74,13.76,5.32,20l4.32,6.18L19.8,55.1c1.56-1.42,4-2.17,5.81-.58a3.21,3.21,0,0,1,.58,4.06L14.37,69.26l5.74,7L34.32,64.39c2-1.74,4.43-2.91,6.39-1.16,3,2.67,0,5.8,0,5.8L25.6,82.38l6.4,7,12.2-11c3.16-3.06,5.92-3.53,8.13-1.74,2.53,2,.58,5.22.58,5.22L38.39,96.32l6.39,6.38,7-7c1.76-1.74,4.2-2.86,6.39-1.16s.58,5.22.58,5.22l-7.55,7.55,6,5.47-.22.22C64.05,120,70.5,125.9,75,129.41V130c4.6-3.59,11.26-9.75,18.58-16.9l.06.06,7-6.39-7.55-7.55s-1.6-3.52.58-5.22,4.64-.58,6.39,1.16l7,7,6.39-6.39L98.86,81.21S96.92,78,99.44,76c2.22-1.79,5-1.32,8.13,1.74l12.19,11,6.39-7-15.1-13.36s-3-3.14,0-5.81c2-1.74,4.37-.58,6.39,1.16L131.62,75.7l5.78-7L125.57,58a3.21,3.21,0,0,1,.58-4.07c1.81-1.59,4.24-.84,5.81.58l9.43,7.77,4.81-7.88a35.15,35.15,0,0,0,3.71-16.74ZM138.46,48.12c-1-.8-2-1.59-3-2.35-2.42-1.65-14.94-6.51-18,6.39,0,0-7.28-1.32-12.19,2.33s-4.93,9.94-4.07,13.36c0,0-6.12-1-9.87,4.06-2.41,3.25-3,9.75-.58,13.36,0,0-6.11,1.55-8.13,7.55-1.67,5,0,9.33,4.07,13.36l.66.67-9.86,10.64H75c-1.27-1.17-5.16-4.9-10.45-10.13l.6-.59c4-4,5.73-8.4,4.06-13.36-2-6-8.13-7.54-8.13-7.54,2.48-3.61,1.83-10.1-.58-13.36-3.76-5.06-9.88-4.06-9.88-4.06.86-3.41.84-9.7-4.07-13.35s-12.2-2.32-12.2-2.32c-3.06-12.9-15.59-8-18-6.39-.39.27-1.69,1.29-3.29,2.57C4.83,30.36,17.09,16.18,27.48,12.5c26.63-9.41,40,10,40,10A13.09,13.09,0,0,0,75,25a13.58,13.58,0,0,0,7.5-2.5C99,4.37,118.14,11.17,125,15c15.86,8.88,16.54,23.68,13.49,33.12Z"/></g></g></svg>