<svg xmlns="http://www.w3.org/2000/svg" viewBox="0 0 175.04 144.21"><defs><style>.cls-1{fill:#c42a26;}</style></defs><g id="图层_2" data-name="图层 2"><g id="图层_1-2" data-name="图层 1"><path class="cls-1" d="M105.34,56.25l21.94-42.44a9.07,9.07,0,0,0,0-8.75,8.49,8.49,0,0,0-4.44-3.62V.38L8.53,0A8.38,8.38,0,0,0,0,8.25V136.94a6.63,6.63,0,0,0,13.19,1.28,6.84,6.84,0,0,0,0-1.28V110.75H119.47a8.5,8.5,0,0,0,7.56-4.12,9,9,0,0,0,0-8.82ZM13.47,13.56h98.62L93.78,50a14.15,14.15,0,0,0,0,12.5l18.75,35.31H13.41Zm97.81,130.19A6.25,6.25,0,0,1,105,137.5V121.69a6.44,6.44,0,0,1,12.88,0v15.44a6.56,6.56,0,0,1-6.5,6.62Zm29.13,0a6.25,6.25,0,0,1-6.25-6.25V71.88a6.44,6.44,0,1,1,12.87,0v65.25a6.24,6.24,0,0,1-5.85,6.62A5,5,0,0,1,140.41,143.75Zm28,0a6.25,6.25,0,0,1-6.25-6.25V98.19a6.44,6.44,0,1,1,12.87,0v38.94a6.24,6.24,0,0,1-5.85,6.62,5,5,0,0,1-.77,0Z"/></g></g></svg>