<svg xmlns="http://www.w3.org/2000/svg" viewBox="0 0 159.99 153.78"><defs><style>.cls-1{fill:#c42a26;}</style></defs><g id="图层_2" data-name="图层 2"><g id="图层_1-2" data-name="图层 1"><path class="cls-1" d="M129.77,143.78h-100a5,5,0,0,0,0,10h100a5,5,0,0,0,0-10Zm29.13-26.29L126.72,63.37a7.77,7.77,0,0,0-13.36,0L106,75.79,72.79,20a8.14,8.14,0,0,0-14,0l-57.66,97a8.12,8.12,0,0,0,7,12.29H152.22a7.77,7.77,0,0,0,6.68-11.74Zm-77.71,0c-.11.18-.15.38-.24.56H13.49l52.31-88L99.48,86.72,81.19,117.49Zm49.94,1.06H93l.3-.5,12.42-20.89,6.5-10.93L120,73l27.07,45.52Zm-7.27-78.91a19.82,19.82,0,1,0,0-39.64h0a19.82,19.82,0,1,0,0,39.64Zm0-29.64a9.83,9.83,0,1,1-9.38,9.38A9.82,9.82,0,0,1,123.86,10Z"/></g></g></svg>