<svg xmlns="http://www.w3.org/2000/svg" viewBox="0 0 200 174.99"><defs><style>.cls-1{fill:#c42a26;}</style></defs><g id="图层_2" data-name="图层 2"><g id="图层_1-2" data-name="图层 1"><path class="cls-1" d="M146.88,0C126.61,0,109,12.08,100,29.8,91,12.08,73.39,0,53.12,0,23.83,0,0,25.24,0,56.25,0,93,23.28,107.24,45.8,121c19,11.63,38.68,23.66,48.34,49.91a6.25,6.25,0,0,0,11.72,0c9.66-26.25,29.33-38.28,48.34-49.9C176.72,107.24,200,93,200,56.25,200,25.24,176.17,0,146.88,0Zm.8,110.34c-16.83,10.29-35.56,21.75-47.68,43.45-12.12-21.7-30.85-33.16-47.68-43.45C30.07,96.74,12.5,86,12.5,56.25c0-24.12,18.22-43.75,40.62-43.75S93.75,32.12,93.75,56.25a6.25,6.25,0,0,0,12.5,0c0-24.12,18.23-43.75,40.63-43.75S187.5,32.12,187.5,56.25C187.5,86,169.92,96.74,147.68,110.34Z"/><path class="cls-1" d="M32.9,45a33,33,0,0,1,1.91-4.72,27.09,27.09,0,0,1,2.5-4,3.13,3.13,0,1,0-5-3.75,33.91,33.91,0,0,0-3.08,5,38.4,38.4,0,0,0-2.29,5.65,40,40,0,0,0-1.43,6.21A42.54,42.54,0,0,0,25,56a49.38,49.38,0,0,0,1.62,13.17,36.73,36.73,0,0,0,1.94,5.37A3.12,3.12,0,0,0,34.29,72l0-.07a29.87,29.87,0,0,1-1.6-4.48A42.89,42.89,0,0,1,31.25,56a38.07,38.07,0,0,1,.42-5.68A34.6,34.6,0,0,1,32.9,45Zm9,37.32a3.12,3.12,0,1,0-4.47,4.36l.15.15A93.58,93.58,0,0,0,45,93.1a3.13,3.13,0,1,0,3.83-4.95A89.51,89.51,0,0,1,41.86,82.34Z"/></g></g></svg>