<svg xmlns="http://www.w3.org/2000/svg" viewBox="0 0 175 175"><defs><style>.cls-1{fill:#c42a26;}</style></defs><g id="图层_2" data-name="图层 2"><g id="图层_1-2" data-name="图层 1"><path class="cls-1" d="M159.38,0H15.62A15.62,15.62,0,0,0,0,15.63V118.44a15.62,15.62,0,0,0,15.62,15.62h65v26.88H32.46a7,7,0,0,0,0,14.06H142.85a7,7,0,0,0,0-14.06H94.69V134.06h64.69A15.62,15.62,0,0,0,175,118.44V15.63A15.63,15.63,0,0,0,159.38,0Zm1.56,118.44a1.57,1.57,0,0,1-1.56,1.56H15.62a1.57,1.57,0,0,1-1.56-1.56V15.63a1.58,1.58,0,0,1,1.56-1.57H159.38a1.58,1.58,0,0,1,1.56,1.57Z"/><path class="cls-1" d="M100,41.11H37.46a7,7,0,0,0,0,14.07H100a7,7,0,0,0,0-14.07ZM75,78.89H37.46a7,7,0,1,0,0,14.06H75a7,7,0,0,0,0-14.06Z"/></g></g></svg>