<svg xmlns="http://www.w3.org/2000/svg" viewBox="0 0 169.91 174.79"><defs><style>.cls-1{fill:#c42a26;}</style></defs><g id="图层_2" data-name="图层 2"><g id="图层_1-2" data-name="图层 1"><path class="cls-1" d="M139.11,70.63v70.83a20.84,20.84,0,0,1-20.83,20.83H51.61a20.83,20.83,0,0,1-20.83-20.83h0V70.63H139.11m12.5-12.5H18.28v83.33a33.33,33.33,0,0,0,33.33,33.33h66.67a33.33,33.33,0,0,0,33.33-33.33h0Z"/><path class="cls-1" d="M100.57,100.83H69.32a5.21,5.21,0,1,0,0,10.42h31.25a5.21,5.21,0,0,0,0-10.42ZM84.94,12.5a20.72,20.72,0,0,1,12.61,4.24l.22.18.24.15,59.37,41.06H12.51L71.88,17.07l.23-.15.23-.18a20.71,20.71,0,0,1,12.6-4.24m0-12.5A33.33,33.33,0,0,0,64.77,6.79l-59.38,41c-10,7-5.15,22.82,7.12,22.82H157.38c12.26,0,17.2-15.82,7.11-22.79L105.12,6.79A33.27,33.27,0,0,0,84.94,0Z"/></g></g></svg>