<svg xmlns="http://www.w3.org/2000/svg" viewBox="0 0 162.5 162.5"><defs><style>.cls-1{fill:#c42a26;}</style></defs><g id="图层_2" data-name="图层 2"><g id="图层_1-2" data-name="图层 1"><path class="cls-1" d="M96.88,62.5H62.5A18.78,18.78,0,0,1,43.75,43.75v-25A18.78,18.78,0,0,1,62.5,0H96.88a18.77,18.77,0,0,1,18.74,18.75v25A18.77,18.77,0,0,1,96.88,62.5ZM62.5,12.5a6.27,6.27,0,0,0-6.25,6.25v25A6.27,6.27,0,0,0,62.5,50H96.88a6.26,6.26,0,0,0,6.24-6.25v-25a6.26,6.26,0,0,0-6.24-6.25Zm81.25,150H109.38a18.78,18.78,0,0,1-18.76-18.75v-25A18.78,18.78,0,0,1,109.38,100h34.37a18.78,18.78,0,0,1,18.75,18.75v25A18.78,18.78,0,0,1,143.75,162.5Zm-34.37-50a6.27,6.27,0,0,0-6.26,6.25v25a6.27,6.27,0,0,0,6.26,6.25h34.37a6.27,6.27,0,0,0,6.25-6.25v-25a6.27,6.27,0,0,0-6.25-6.25Zm-56.26,50H18.75A18.78,18.78,0,0,1,0,143.75v-25A18.78,18.78,0,0,1,18.75,100H53.12a18.78,18.78,0,0,1,18.76,18.75v25A18.78,18.78,0,0,1,53.12,162.5Zm-34.37-50a6.27,6.27,0,0,0-6.25,6.25v25A6.27,6.27,0,0,0,18.75,150H53.12a6.27,6.27,0,0,0,6.26-6.25v-25a6.27,6.27,0,0,0-6.26-6.25Z"/><path class="cls-1" d="M128.12,106.68a6.24,6.24,0,0,1-6.24-6.25V91.19a6.27,6.27,0,0,0-6.26-6.25H46.88a6.27,6.27,0,0,0-6.26,6.25v9.24a6.25,6.25,0,1,1-12.5,0V91.19A18.78,18.78,0,0,1,46.88,72.44h68.74a18.78,18.78,0,0,1,18.76,18.75v9.24A6.25,6.25,0,0,1,128.12,106.68Z"/><path class="cls-1" d="M79.69,84.94a6.24,6.24,0,0,1-6.25-6.25V57a6.25,6.25,0,1,1,12.5,0V78.69A6.25,6.25,0,0,1,79.69,84.94Z"/></g></g></svg>