<?xml version="1.0" encoding="UTF-8"?>
<svg id="_图层_1" data-name="图层 1" xmlns="http://www.w3.org/2000/svg" viewBox="0 0 90.21 17.8">
  <defs>
    <style>
      .cls-1 {
        fill: #e50019;
      }

      .cls-2 {
        fill: #640008;
      }
    </style>
  </defs>
  <path id="Path_760" data-name="Path 760" d="M42.2,13.3c-2.4,1.9-5.9,1.5-7.8-.9s-1.5-5.9,.9-7.8c2-1.6,4.9-1.6,6.9,0h0l2.4-2.4h-.1c-1.6-1.4-3.7-2.2-5.8-2.2-4.9,0-8.9,4-8.9,8.9s4,8.9,8.9,8.9c2.1,0,4.2-.8,5.8-2.2l.1-.1-2.4-2.2h0m5.7,4h3.4V.4h-3.4V17.3Zm16.8-6.1c-.1-.2-6-10.8-6-10.8h-3.3V17.3h3.4V7.2l5.9,10.2,5.9-10.2v10.1h3.4V.4h-3.3s-5.8,10.6-6,10.8m23.3-2.5c1.2-.7,2-2,2-3.5,0-2.9-2-4.8-5.2-4.8h-6.8V17.3h7c3.2,0,5.2-1.9,5.2-4.9,.1-1.5-.7-3-2.2-3.7m-6.6-5.2h3.1c1.3,0,2.1,.7,2.1,1.9s-.8,1.9-2.1,1.9h-3.1V3.5Zm3.3,10.8h-3.3v-4h3.3c1.1-.1,2,.8,2.1,1.9,.1,1.1-.8,2-1.9,2.1,0,0-.1,0-.2,0"/>
  <path id="Path_765" data-name="Path 765" class="cls-1" d="M13.7,.9H0L6.1,8.9h13.7L13.7,.9Z"/>
  <path id="Path_766" data-name="Path 766" class="cls-2" d="M19.7,8.9H6.1L0,16.9H13.7l6-8Z"/>
</svg>