<?xml version="1.0" encoding="utf-8"?>
<!-- Generator: Adobe Illustrator 25.2.3, SVG Export Plug-In . SVG Version: 6.00 Build 0)  -->
<svg version="1.1" id="Layer_1" xmlns="http://www.w3.org/2000/svg" xmlns:xlink="http://www.w3.org/1999/xlink" x="0px" y="0px"
	 viewBox="0 0 220.6 135.3" style="enable-background:new 0 0 220.6 135.3;" xml:space="preserve">
<g>
	<path d="M88.8,4.7c0-2.8-1.9-3.6-3.9-3.6c-2.1,0-4.4,0.8-5.1,1c-1.6,0.5-1.5,1.3-2.1,4c-3,12.5-8.3,32.4-13.6,52.9
		c-8.9,1.9-19.7,4.2-29.9,6.4c5-21.6,11.1-40,11.1-42.9c0-1.6-0.5-3.2-2.3-3.2c-1.6,0-4.5,0.8-6.1,1.3c-2.7,0.7-3.2,2.4-3.4,3.9
		c-1.1,8.1-6.4,28.4-10.2,43.4C3.8,72.2,0,72.2,0,73.8c0,1.4,5.6,3.7,8.9,3.7c2.5,0,6.9-0.8,12.6-2c-4.5,18.4-6.4,22.9-6.8,28.6
		c-0.3,3.5,2,4.5,8.1,2.6c3.7-1.1,3.4-3,3.7-5.1c1.2-8.6,3-17.5,5.7-28.3c10.9-2.1,21.8-4.2,29.6-5.7c-5.8,22.8-14.9,55.4-14.9,62
		c0,2.4,0.8,3.6,3.1,3.6c1.4,0,3.5-0.4,5.6-1c4.5-1.2,4.3-2.5,4.7-5.6C64.6,89.1,81.4,35.5,88.5,6.9C88.7,6.1,88.8,5.3,88.8,4.7z"/>
	<path d="M121,65c-6.9,1.2-15,2.9-23,4.4c2.3-9.1,4.6-17.7,6.4-23.6c15.7-3.6,46.8-10.9,51.2-11.6c2.5-0.4,3.4-1.1,3.4-1.7
		c0-1.1-3.7-4.8-8.2-4.8c-1,0-2.1,0.1-3.4,0.3c-9.1,1.6-45.9,9.3-56.3,11.4c-2.6,0.5-3.7,1.5-3.7,2.4c0,1.5,3.7,4.5,6,5.2
		c-5.2,20.1-18.3,64.3-18.3,68.9c0,1.1,0.4,1.9,1.8,1.9c2,0,6-0.8,8.3-1.8s2.3-2.2,3-5.6c1.6-7.4,4.5-19.9,7.6-32.4
		c9.4-2,15.5-3,19.9-4c5-1.1,5.9-2.6,7.3-4.6c0.9-1.3,1.8-2.9,1.8-3.6C124.9,64.8,123.8,64.5,121,65z"/>
	<path d="M211.8,24c-2.9,0-6,1.8-10,8.3c-5.7,9.2-19.3,41.9-28.2,64.4c-0.3-23.5,2.8-43.8,2.8-49.1c0-2.6-1.6-3.3-3.6-3.3
		c-2.7,0-6.6,0.1-8,3.4c-0.9,2.2-1.1,2.7-1.9,4.1c-1.8,3.2-12,21.2-22.5,36.1c4.6-24.7,8.7-36.7,8.7-39.3c0-1.2-0.8-1.6-1.7-1.6
		c-1.1,0-4.1,0.7-5.8,1.1c-2,0.5-3.6,1.1-4.9,6c-4.1,15.7-10.6,42.4-10.6,49c0,2.9,0.6,4.3,3.1,4.3c2.7,0,6.5-0.8,8.3-3.4
		c9-13.2,18.1-28.9,26.4-42.8c-1.3,13.1-2.2,30-2.2,41.5c0,7.9,0.2,11.1,4.8,11.1c4.1,0,7.8-0.7,10.4-6.6c9-20.3,27.9-62.6,39.7-77
		c0.8-0.9,1.5-1.7,1.5-2.8C218,26,214.5,24,211.8,24z"/>
</g>
</svg>
