<svg xmlns="http://www.w3.org/2000/svg" viewBox="0 0 512.9 192.27"><defs><style>.cls-1{fill:#fff;}</style></defs><g id="图层_2" data-name="图层 2"><g id="Layer_1" data-name="Layer 1"><path class="cls-1" d="M103.42,0h13.72a1.79,1.79,0,0,1,1.56,2.69L51,120a40.94,40.94,0,0,1-35.47,20.48H1.8a1.8,1.8,0,0,1-1.56-2.69L68,20.48A41,41,0,0,1,103.42,0Z"/><path class="cls-1" d="M206.58,0H220.3a1.79,1.79,0,0,1,1.55,2.69L154.15,120a41,41,0,0,1-35.48,20.48H105a1.79,1.79,0,0,1-1.55-2.69L171.1,20.48A41,41,0,0,1,206.58,0Z"/><path class="cls-1" d="M134.71,35.11h13.72a1.8,1.8,0,0,1,1.55,2.7L82.28,155.07A41,41,0,0,1,46.8,175.55H33.08a1.79,1.79,0,0,1-1.55-2.69L99.23,55.59A41,41,0,0,1,134.71,35.11Z"/><path class="cls-1" d="M354.55,9.61q4.13,3,6.74,5.23l-3.16,3.57q-3.17-2.75-6.46-5.36Zm1.52,9.76a37.49,37.49,0,0,0,4.67,1.51Q359,28.31,357,33.94q-2.47-.82-4.67-1.38A135.88,135.88,0,0,0,356.07,19.37Zm-.28-18.28q2.61,1.93,6,4.81l-3.16,3.44c-2-1.92-3.94-3.66-5.78-5.22Zm7,1.65h22.4V7H367.61V28.85h18v4.26H362.8Z"/><path class="cls-1" d="M388.1,6h14.29c-.37-1.19-.83-2.65-1.37-4.4l5.22-1Q407.47,4,408.16,6h13.19v4.67h-5.22a34.49,34.49,0,0,1-7.42,13.06,39.68,39.68,0,0,0,13.05,5.63,30.36,30.36,0,0,0-3.7,5.09,41.08,41.08,0,0,1-13.34-7,51.1,51.1,0,0,1-13.6,7.14,50.13,50.13,0,0,0-3.43-4.94,47.15,47.15,0,0,0,12.91-5.91,31.85,31.85,0,0,1-7-13.06H388.1Zm22.26,4.67H399a23.85,23.85,0,0,0,5.63,9.62A22.57,22.57,0,0,0,410.36,10.71Z"/><path class="cls-1" d="M426.59,20.88,423,18c2.75-3.76,4.94-6.87,6.6-9.35a37.48,37.48,0,0,0,3.43,2.89ZM424,3,427.14.27a69.63,69.63,0,0,1,5.22,4.95c-1,.91-2.15,2-3.43,3.16Q426.73,5.77,424,3Zm3.57,17.59h26.66V34.49h-4.95V32.84H432.5v1.78h-4.95ZM442,7.69h4.67a8.19,8.19,0,0,0-.41,1.37q2.19,5.64,11.41,7.15a28.77,28.77,0,0,0-2.07,4.53q-8.1-2.05-11.26-8-2.47,5.22-11.41,7.55-1-1.65-2.61-4.26a24.1,24.1,0,0,0,8.17-2.68A7.8,7.8,0,0,0,442,7.69ZM456.41,3V6.59Q454.9,9.34,453.52,12l-4.26-1.37c.83-1.56,1.52-2.75,2.06-3.58H438.27q-1.38,2.34-3.16,4.81-1.78-1.37-3.71-2.61A31.55,31.55,0,0,0,436.62.54l4.81.42c-.27.64-.6,1.33-1,2.06Zm-7.15,22H432.5v3.58h16.76Z"/><path class="cls-1" d="M469.75,24a36.76,36.76,0,0,0,.41,5.36A63.35,63.35,0,0,0,464,34.21l-2.47-3.3a3.9,3.9,0,0,0,1.1-2.88V16.49h-3.16v-4.4h7.42V26.38ZM464.12,1.09c1.56,2,3,4.08,4.4,6.19-1.1.73-2.48,1.56-4.12,2.47a46.88,46.88,0,0,0-4-6.59Zm9.21-.55c1.46.19,3,.42,4.67.69-.46,1-.92,2-1.37,2.89h15.52L492,17.31l-.13,9.21a8.68,8.68,0,0,1-1.65,5.35,5.62,5.62,0,0,1-3.57,2.07,60.4,60.4,0,0,1-7.7.13c-.27-1.65-.6-3.25-1-4.81q3.44.28,6.18.28a3.06,3.06,0,0,0,1.79-.48,2.92,2.92,0,0,0,1-1.44q.35-1,.34-13.88l.14-5.09H474.15a17.47,17.47,0,0,1-1.78,2.48h11.95V27.34h-9.48v1.92h-4V13.19l-1.1,1.1a41.31,41.31,0,0,0-3-3.44A30.1,30.1,0,0,0,473.33.54Zm7,14.43h-5.5v2.48h5.5Zm0,8.66V21.16h-5.5v2.47Z"/><path class="cls-1" d="M277.61,73.32l-12.45,32.51h-.42L246.35,61.37c-1.67-4.18-1.83-5.1-5.76-5.1V54.35h24.9v1.92c-2.59,0-3.67.17-3.67,1.42A11.26,11.26,0,0,0,263,61.37l8.35,21.06,4.85-12.7-3.34-8.36c-1.68-4.35-2.6-5.1-4.94-5.1V54.35h24.66v1.92c-3.35,0-4.6.17-4.6,1.59a12.18,12.18,0,0,0,.92,3.51L297,82.85l7.93-21.31a5.36,5.36,0,0,0,.42-2.09c0-2.43-2.34-3.18-6.18-3.18V54.35h16.21v1.92c-3.93,0-5.51,1-7,5l-17.3,44.54h-.42Z"/><path class="cls-1" d="M308.88,120.78V119.7c7.44-1.84,14.46-7.11,19.8-16.8L314.4,73.82c-1.84-3.68-2.34-4.34-4.85-4.34V67.72h23.06v1.76c-2.25,0-3.09.33-3.09,1.33a9,9,0,0,0,1.09,3.09l6,13.37,5.27-11.78a11.54,11.54,0,0,0,1.17-3.84c0-1.84-1.67-2.17-5.18-2.17V67.72H351v1.76c-2.84,0-3.6.66-6,5.84l-12,25.49c-5.26,11.12-9.95,18.72-12.2,20.89Z"/><path class="cls-1" d="M370.31,105.83l-16.05-32c-1.92-3.68-2.42-4.34-4.93-4.34V67.72h22.73v1.76c-2.26,0-3,.25-3,1.16a10.15,10.15,0,0,0,1.09,3.26l6.27,13.88L382,75.16a11.08,11.08,0,0,0,1.17-3.76c0-1.84-1.83-1.92-5.43-1.92V67.72H391v1.76c-2.84,0-3.59.58-6,5.84l-14.46,30.51Z"/><path class="cls-1" d="M407.09,105.83c-10.7,0-19.39-7.36-19.39-18.47,0-11.45,9.36-20.47,19.8-20.47a15.84,15.84,0,0,1,15.88,15.29H402.07c.51,10.36,6,16.79,12.29,16.79,3.26,0,5.77-1.42,8-4.68l1.34,1C420,102.23,413.86,105.83,407.09,105.83Zm-5-26.08h10.2c-.17-6.18-2.17-10.27-5.35-10.27C403.91,69.48,402.24,72.57,402.07,79.75Z"/><path class="cls-1" d="M449,105H425.73v-1.76c3.09,0,3.26-1,3.26-5.09V74.57c0-4.09-.17-5.09-3.26-5.09V67.72H444v9.86c4.68-8.19,6.52-10.69,10.36-10.69a8.56,8.56,0,0,1,5.18,2L457.4,82.51l-.42.08c-2.33-3.5-6.35-5.68-8.85-5.68-1.42,0-2.93,1.09-4.1,2.68V98.14c0,4.09.34,5,4.93,5.09Z"/><path class="cls-1" d="M483.9,105H462.34v-1.76c3.09,0,3.26-1,3.26-5.09V74.57c0-4.09-.17-5.09-3.26-5.09V67.72h18.31V73.9a12.61,12.61,0,0,1,11.19-7c7.86,0,12.2,5.43,12.2,12.11V98.14c0,4.09.17,5.09,3.26,5.09V105H485.74v-1.76c3.1,0,3.26-1,3.26-5.09V80.67c0-5.51-2.17-7.27-4.76-7.27A3.9,3.9,0,0,0,480.65,76V98.14c0,4.09.16,5.09,3.25,5.09Z"/><path class="cls-1" d="M215.84,175.56H200.22v-1.93c3.92,0,5.59-1,7-5l15.38-43.71h8.69l17,43.62c1.67,4.18,2.59,5.1,5.76,5.1v1.93H228v-1.93c3.34,0,4.6-.25,4.6-1.75a10.9,10.9,0,0,0-.92-3.35l-4.26-11.28H214.34l-3.76,11.12a7.62,7.62,0,0,0-.42,2.09c0,2.25,1.92,3.17,5.68,3.17Zm-.58-20.9h11.2L220.52,139Z"/><path class="cls-1" d="M279.45,170.71a12.19,12.19,0,0,1-10.37,5.68c-8.43,0-15.37-7-15.37-18,0-13,9.44-21,18.3-21a12.69,12.69,0,0,1,7.44,2.34V127.67c0-4.09-1-4.68-4.1-4.68v-1.75h19.14V168.7c0,4.1.16,5.1,3.26,5.1v1.76h-18.3Zm0-2V141.63a5.58,5.58,0,0,0-2.84-.75c-3.43,0-7.53,3.75-7.53,15.37,0,9.78,3,14.12,6.86,14.12A3.92,3.92,0,0,0,279.45,168.7Z"/><path class="cls-1" d="M318.15,176.39l-16-32c-1.93-3.67-2.43-4.34-4.94-4.34v-1.76H319.9V140c-2.25,0-3,.25-3,1.17a10.14,10.14,0,0,0,1.08,3.26l6.27,13.87,5.6-12.62A11.19,11.19,0,0,0,331,142c0-1.84-1.84-1.92-5.43-1.92v-1.76h13.28V140c-2.84,0-3.59.58-6,5.85l-14.46,30.5Z"/><path class="cls-1" d="M338.38,140v-1.76h18.3V168.7c0,4.1.17,5.1,3.26,5.1v1.76H338.38V173.8c3.09,0,3.26-1,3.26-5.1V145.14C341.64,141,341.47,140,338.38,140Zm10.78-19.64a7.65,7.65,0,1,1-8,7.69A7.72,7.72,0,0,1,349.16,120.4Z"/><path class="cls-1" d="M389,140.21l-.34,9.36h-1.92c-.33-4.94-2.5-9.61-8.86-9.61-2.75,0-4.42,1.58-4.42,3.76s1.67,3.17,3.84,4.34l6.1,3.34c4.93,2.68,7.77,6.1,7.77,11.28,0,8.45-7.35,13.71-16.13,13.71-5.18,0-10.44-1.59-13.2-3.34V162.52h1.84c.58,6.93,5.09,11.28,11.45,11.28,3.25,0,5.43-1.5,5.43-4.43s-2.26-4-5.6-5.76l-6.52-3.43a11,11,0,0,1-6.35-10.45c0-7.52,7.27-12.28,15.12-12.28C381.84,137.45,386.52,138.7,389,140.21Z"/><path class="cls-1" d="M413.69,176.39c-10.28,0-20.22-7.86-20.22-19.47s9.94-19.47,20.22-19.47,20.22,7.85,20.22,19.47S424,176.39,413.69,176.39Zm0-36.6c-3.26,0-5.18,5.6-5.18,17.13S410.43,174,413.69,174s5.18-5.52,5.18-17.05S417,139.79,413.69,139.79Z"/><path class="cls-1" d="M459.16,175.56H435.93V173.8c3.09,0,3.26-1,3.26-5.1V145.14c0-4.1-.17-5.1-3.26-5.1v-1.76h18.3v9.86c4.68-8.18,6.51-10.69,10.36-10.69a8.62,8.62,0,0,1,5.18,2l-2.17,13.62-.42.08c-2.34-3.51-6.35-5.68-8.86-5.68-1.42,0-2.92,1.08-4.09,2.67V168.7c0,4.1.33,5,4.93,5.1Z"/><path class="cls-1" d="M470.78,191.35v-1.09c7.44-1.84,14.46-7.1,19.8-16.8L476.3,144.38c-1.84-3.67-2.34-4.34-4.85-4.34v-1.76h23.06V140c-2.25,0-3.09.33-3.09,1.34a9.08,9.08,0,0,0,1.09,3.09l6,13.37,5.27-11.78a11.58,11.58,0,0,0,1.17-3.85c0-1.84-1.67-2.17-5.18-2.17v-1.76H512.9V140c-2.84,0-3.6.67-6,5.85l-12,25.49c-5.27,11.11-10,18.71-12.2,20.89Z"/></g></g></svg>