<svg xmlns="http://www.w3.org/2000/svg" viewBox="0 0 852.17 461.71"><defs><style>.cls-1{fill:#c42a26;}</style></defs><g id="图层_2" data-name="图层 2"><g id="图层_1-2" data-name="图层 1"><path class="cls-1" d="M4.71,230.53H279c-.05-.87-.09-1.74-.13-2.61H4.71l4.21-4.21a1.5,1.5,0,0,0-2.12-2.13L.42,228a1.45,1.45,0,0,0-.4,1.27,1.49,1.49,0,0,0,.4,1.26l6.38,6.37a1.5,1.5,0,0,0,2.12-2.12Z"/><path class="cls-1" d="M429.5,8.92l4.2-4.21V63.53l2.61,0V4.71l4.21,4.21a1.5,1.5,0,0,0,2.13-2.12L436.27.42a2.18,2.18,0,0,0-2.52,0L427.37,6.8a1.5,1.5,0,0,0,2.13,2.12Z"/><path class="cls-1" d="M851.76,228l-6.38-6.38a1.52,1.52,0,0,0-2.13,0,1.5,1.5,0,0,0,0,2.13l4.21,4.21H593.81c0,.87-.08,1.74-.13,2.61H847.46l-4.21,4.21a1.5,1.5,0,0,0,2.13,2.12l6.37-6.37a2.22,2.22,0,0,0,0-2.53Z"/><path class="cls-1" d="M440.52,452.79h0L436.31,457V378.79l-2.61,0V457l-4.2-4.2a1.5,1.5,0,0,0-2.13,2.12l6.38,6.38a2.18,2.18,0,0,0,2.52,0l6.38-6.38a1.5,1.5,0,0,0-2.13-2.12Z"/><path class="cls-1" d="M438.77,85.61A135.53,135.53,0,1,0,574.3,221.14,135.53,135.53,0,0,0,438.77,85.61ZM356.69,266.83a1.35,1.35,0,0,1-1.17-2l50.87-88.11a30.77,30.77,0,0,1,26.66-15.39h10.3a1.35,1.35,0,0,1,1.17,2l-50.87,88.11A30.77,30.77,0,0,1,367,266.83Zm33.81,26.39H380.19a1.36,1.36,0,0,1-1.17-2l50.88-88.11a30.79,30.79,0,0,1,26.65-15.39h10.31a1.35,1.35,0,0,1,1.17,2l-50.87,88.12A30.79,30.79,0,0,1,390.5,293.22ZM522,163.33l-50.87,88.11a30.77,30.77,0,0,1-26.66,15.39H434.19a1.35,1.35,0,0,1-1.16-2L483.9,176.7a30.77,30.77,0,0,1,26.65-15.39h10.31A1.35,1.35,0,0,1,522,163.33Z"/></g></g></svg>