<svg xmlns="http://www.w3.org/2000/svg" viewBox="0 0 150.7 181.88"><defs><style>.cls-1{fill:#757575;}</style></defs><g id="图层_2" data-name="图层 2"><g id="图层_1-2" data-name="图层 1"><path class="cls-1" d="M76.25,0C34.38,0,0,34.38,0,76.88c0,9.37,3.12,19.37,8.13,30.62,5.62,11.25,13.75,23.13,23.12,35.63,6.88,8.12,14.38,16.25,21.25,23.75l6.88,6.87c1.25,1.25,2.5,1.88,2.5,2.5h0c7.5,7.5,20,7.5,26.87,0l2.5-2.5,6.87-6.87c7.51-7.5,14.38-15.63,21.25-23.75,10-11.88,18.13-24.38,23.13-35.63,5.62-11.25,8.12-21.25,8.12-30.62C152.5,34.38,118.12,0,76.25,0Zm59.37,103.12q-7.49,15.94-22.5,33.75C106.25,145,99.37,153.12,92.5,160l-6.88,6.88-2.49,2.5a9.81,9.81,0,0,1-13.75,0h0l-2.5-2.5L60,160c-6.88-7.5-14.37-15-20.62-23.13a224.42,224.42,0,0,1-22.5-33.75q-7.5-15-7.5-26.24c0-37.5,30-67.5,66.87-67.5s66.88,30,66.88,67.5Q143.12,88.13,135.62,103.12Z"/><path class="cls-1" d="M76.25,41.87c-18.75,0-33.13,15-33.13,33.76s15,33.75,33.13,33.75,33.12-15,33.12-33.75S95,41.87,76.25,41.87Zm0,57.5C63.12,99.37,52.5,88.75,52.5,75S63.12,50.63,76.25,50.63,100,61.25,100,75,89.37,99.37,76.25,99.37Z"/></g></g></svg>