<svg xmlns="http://www.w3.org/2000/svg" viewBox="0 0 166.67 125"><defs><style>.cls-1{fill:#757575;}</style></defs><g id="图层_2" data-name="图层 2"><g id="图层_1-2" data-name="图层 1"><path class="cls-1" d="M147.19,8.33H16.67a8.39,8.39,0,0,0-2.07.26L77.83,71.81a4.18,4.18,0,0,0,5.89,0Zm9,2.77L105.29,62l51.35,51.35a8.33,8.33,0,0,0,1.69-5V16.67a8.34,8.34,0,0,0-2.12-5.57Zm-8,105.57L99.4,67.91,89.61,77.7a12.5,12.5,0,0,1-17.68,0h0l-9.79-9.79L13.88,116.19a8.3,8.3,0,0,0,2.79.48ZM8.46,109.81,56.25,62,8.64,14.42a8.54,8.54,0,0,0-.31,2.25v91.66A8.07,8.07,0,0,0,8.46,109.81ZM16.67,0H150a16.67,16.67,0,0,1,16.67,16.67v91.66A16.67,16.67,0,0,1,150,125H16.67A16.67,16.67,0,0,1,0,108.33V16.67A16.67,16.67,0,0,1,16.67,0Z"/></g></g></svg>