<svg xmlns="http://www.w3.org/2000/svg" viewBox="0 0 323 77.4"><defs><style>.cls-1{fill:#f24406;}</style></defs><g id="图层_2" data-name="图层 2"><g id="图层_1-2" data-name="图层 1"><path d="M163.13,2.72a14.87,14.87,0,0,1,7.28,7.94c1.54,3.66,2.31,8.6,2.31,14.79q0,13.62-5.41,19.63T150,51.1H131.11V75.52H114.39V.28h35.5Q158.16.28,163.13,2.72Zm-9.48,31.09c1.5-1.5,2.25-4.28,2.25-8.36a17.69,17.69,0,0,0-.94-6.62,5.12,5.12,0,0,0-3-3,18.51,18.51,0,0,0-6-.75H131.11v21H146Q151.4,36.07,153.65,33.81Z"/><path d="M215.92,23.48,195.44,75.33H178.63L209.06.47H221q3.57,0,4.61,2.72l25.26,72.14H233.3L227.19,57.2"/><path d="M312.52,69.13q-8.31,7.23-21.55,7.23a34.82,34.82,0,0,1-18.37-4.74,31.61,31.61,0,0,1-12.11-13.43A45.32,45.32,0,0,1,256.21,38a44.22,44.22,0,0,1,4.28-20A31.46,31.46,0,0,1,272.6,4.7,35.08,35.08,0,0,1,291,0q12.21,0,20.47,6.72t10.71,18.55l-15.31,3.38q-1.21-7-5.4-10.76A15.22,15.22,0,0,0,291,14.18a15.87,15.87,0,0,0-13.34,6.39Q272.74,27,272.75,38A29.67,29.67,0,0,0,275.09,50a19.76,19.76,0,0,0,6.48,8.26,15.78,15.78,0,0,0,9.4,3q6.94,0,10.94-3.71t5.4-12.07L323,48.37Q320.83,61.9,312.52,69.13Z"/><path class="cls-1" d="M63.84,77.4,48.77,67.77A20,20,0,1,0,15.06,46.2L0,36.56A37.89,37.89,0,1,1,63.84,77.4Z"/><path class="cls-1" d="M44.68.36h9.45a10.57,10.57,0,1,0,21.13,0H84.7a20,20,0,0,1-20,20A20,20,0,0,1,44.68.36Z"/></g></g></svg>