<svg xmlns="http://www.w3.org/2000/svg" viewBox="0 0 146.75 147.09"><defs><style>.cls-1{fill:#757575;}</style></defs><g id="图层_2" data-name="图层 2"><g id="图层_1-2" data-name="图层 1"><path class="cls-1" d="M89.91,136c-14.86-4.73-30.72-14.9-47.06-32C27,87.5,17.14,71.86,12.09,57.49,8.8,48.14,8,40.78,8.46,35.73c0-.21,0-.42.07-.63l.07-.66a22.47,22.47,0,0,1,4.32-11.57,82.4,82.4,0,0,1,6.75-7.71,41.52,41.52,0,0,1,5.46-4.72c2.52-1.77,4.13-2.22,4.55-2,0,0,.21.26.56.74a41.08,41.08,0,0,1,2.28,3.59c2.14,3.79,4.17,7.65,6.06,11.58Q44.52,36.59,50,49a4.23,4.23,0,0,1-.26,3.07L40.53,65.74a5.58,5.58,0,0,0-.66,1.45c-1.46,5.06,2.41,13,14.42,25.24,7.33,7.46,13.73,12.31,19.24,15,3.7,1.84,6.5,2.5,8.35,2.46a4.28,4.28,0,0,0,2.25-.71l13.58-9.17a4.5,4.5,0,0,1,3.23-.32l1.7.67q9,3.63,17.87,7.52l3.95,1.77c4.25,2,7.75,3.67,10.28,5.08a30.31,30.31,0,0,1,3,1.88,6.54,6.54,0,0,1,.57.46,2.13,2.13,0,0,1-.43-.78l.29.63c.88,1.57-3.29,7.44-10.07,13.42q-2,1.74-4,3.39a4.16,4.16,0,1,0,5,6.69,1.56,1.56,0,0,0,.2-.16q2.22-1.78,4.36-3.67c10.25-9,15.75-16.77,11.82-23.76l.29.63c-1.18-3.25-6.3-6.11-17.83-11.38-1.3-.6-2.65-1.2-4.05-1.82Q114,96,104,92a12.63,12.63,0,0,0-11,1.16l-13.59,9.16,2.14-.71c.11,0-.11,0-.59-.14A17.8,17.8,0,0,1,77.24,100c-4.62-2.3-10.29-6.6-17-13.43C50.13,76.29,47.48,70.87,47.88,69.51a3.45,3.45,0,0,1-.38.8l9.13-13.55a12.3,12.3,0,0,0,1-11.08l-.81-1.83q-4.36-9.85-9-19.57c-.59-1.23-1.16-2.43-1.73-3.58C40,8.38,36.58,2.48,33.52,1.08,29.82-1.1,25.26.16,20.34,3.61a51.25,51.25,0,0,0-6.57,5.66,89.83,89.83,0,0,0-7.34,8.38C3.13,21.5.41,28.81.27,34.23l.07-.65c-.06.29-.12.74-.18,1.36-.59,6.22.37,14.8,4.07,25.31,5.46,15.52,16,32.18,32.6,49.57,17.28,18.05,34.33,29,50.54,34.14a69.14,69.14,0,0,0,15.23,3.12,4.17,4.17,0,0,0,.69-8.31A60.48,60.48,0,0,1,89.91,136Z"/></g></g></svg>