<svg xmlns="http://www.w3.org/2000/svg" viewBox="0 0 200.07 184.57"><defs><style>.cls-1{fill:#c42a26;}</style></defs><g id="图层_2" data-name="图层 2"><g id="图层_1-2" data-name="图层 1"><path class="cls-1" d="M197.94,97a.53.53,0,0,1-.08-.17L174.38,32.31a.79.79,0,0,1,.75-1.06h15a.78.78,0,0,0,.78-.78,11.74,11.74,0,0,0-11.72-11.72H109.44a3.12,3.12,0,0,1-3.12-3.12V6.37A6.34,6.34,0,0,0,100.2,0a6.27,6.27,0,0,0-6.4,6.25v9.38a3.13,3.13,0,0,1-3.13,3.12H21.16A11.74,11.74,0,0,0,9.44,30.47a.78.78,0,0,0,.24.55.79.79,0,0,0,.54.23H24.64a.8.8,0,0,1,.74,1.06L1.88,96.8c-.06.15-.11.31-.19.47a15.72,15.72,0,0,0,.72,15.47,39.22,39.22,0,0,0,8.79,9.55,43.52,43.52,0,0,0,26.76,9c15.9,0,29.68-8.18,36.56-20.19A13.9,13.9,0,0,0,74.13,97a.53.53,0,0,1-.08-.17L50.55,32.31a.79.79,0,0,1,.75-1.06H75.07A18.76,18.76,0,0,1,93.82,50V164a9.36,9.36,0,0,1-7.91,9.25c-12.39,1.92-22.5,6-28,11.33h87.56c-6-5.68-17.19-10-30.84-11.72a9.37,9.37,0,0,1-8.24-9.29V50a18.75,18.75,0,0,1,18.75-18.75h23.53a.79.79,0,0,1,.74,1.06L125.85,96.8a1.92,1.92,0,0,1-.14.29,14.93,14.93,0,0,0,.16,15.08c7.07,11.41,20.51,19.1,35.92,19.1,15.87,0,29.64-8.16,36.52-20.14A13.93,13.93,0,0,0,197.94,97ZM61.88,100H14l23.2-63.75a.78.78,0,0,1,1.47,0ZM138,100l23.12-63.55a.78.78,0,0,1,1.47,0L185.71,100Z"/></g></g></svg>