<svg xmlns="http://www.w3.org/2000/svg" viewBox="0 0 200 193.24"><defs><style>.cls-1{fill:#c42a26;}</style></defs><g id="图层_2" data-name="图层 2"><g id="图层_1-2" data-name="图层 1"><path class="cls-1" d="M37.4,37.66a17.87,17.87,0,0,0-13.08,0V6.54a6.54,6.54,0,1,1,13.08,0Zm0,33v116a6.54,6.54,0,1,1-13.08,0v-116a17.87,17.87,0,0,0,13.08,0Zm68.3,51.39a17.89,17.89,0,0,0-13.09,0V6.54a6.55,6.55,0,0,1,13.09,0Zm0,33.05V186.7a6.55,6.55,0,0,1-13.09,0V155.14a17.83,17.83,0,0,0,13.09,0Zm70.11-92.77a17.87,17.87,0,0,0-13.08-.1V6.54a6.54,6.54,0,1,1,13.08,0Zm0,32.92V186.7a6.54,6.54,0,1,1-13.08,0V95.39a17.81,17.81,0,0,0,13.08-.11Z"/><path class="cls-1" d="M30.86,85A30.84,30.84,0,1,1,61.72,54.18,30.85,30.85,0,0,1,30.86,85Zm68.27,84.45A30.87,30.87,0,1,1,130,138.6,30.86,30.86,0,0,1,99.13,169.47Zm70-59.81A30.84,30.84,0,1,1,200,78.82,30.85,30.85,0,0,1,169.14,109.66ZM30.86,71.93A17.76,17.76,0,1,0,13.09,54.18,17.77,17.77,0,0,0,30.86,71.93Zm68.27,84.45A17.78,17.78,0,1,0,81.35,138.6,17.77,17.77,0,0,0,99.13,156.38Zm70-59.8a17.76,17.76,0,1,0-17.78-17.76A17.77,17.77,0,0,0,169.14,96.58Z"/></g></g></svg>