<svg xmlns="http://www.w3.org/2000/svg" viewBox="0 0 150 182.16"><defs><style>.cls-1{fill:#c42a26;}</style></defs><g id="图层_2" data-name="图层 2"><g id="图层_1-2" data-name="图层 1"><path class="cls-1" d="M75,53.19a20.83,20.83,0,0,0-8.34,39.93v26.75a8.34,8.34,0,0,0,16.68,0V93.12A20.83,20.83,0,0,0,75,53.19Z"/><path class="cls-1" d="M139.82,30.05,83.16,1.9a18.45,18.45,0,0,0-16.3,0L10.18,30.05A18.25,18.25,0,0,0,0,46.47V97.94c0,23.67,11.52,46.15,31.62,61.62,14.53,11.17,39.14,21.5,40.18,21.95a8.36,8.36,0,0,0,3.2.65,8.21,8.21,0,0,0,3.2-.65c1-.43,25.65-10.76,40.18-21.95C138.48,144.09,150,121.63,150,97.94V46.47A18.25,18.25,0,0,0,139.82,30.05Zm-6.48,67.89c0,18.48-9.16,36.11-25.12,48.42C98.28,154,81.89,161.67,75,164.74c-6.88-3.07-23.24-10.71-33.2-18.38-16-12.31-25.12-30-25.12-48.42V46.47A1.68,1.68,0,0,1,17.6,45L74.26,16.85a1.61,1.61,0,0,1,1.48,0L132.4,45a1.64,1.64,0,0,1,.92,1.48V97.94Z"/></g></g></svg>